<?xml version="1.0" standalone="no"?>
<!DOCTYPE svg PUBLIC "-//W3C//DTD SVG 20010904//EN"
 "http://www.w3.org/TR/2001/REC-SVG-20010904/DTD/svg10.dtd">
<svg version="1.0" xmlns="http://www.w3.org/2000/svg"
 width="256.000000pt" height="256.000000pt" viewBox="0 0 256.000000 256.000000"
 preserveAspectRatio="xMidYMid meet">

<g transform="translate(0.000000,256.000000) scale(0.100000,-0.100000)"
fill="#000000" stroke="none">
<path d="M0 1280 l0 -1280 1280 0 1280 0 0 1280 0 1280 -1280 0 -1280 0 0
-1280z m2273 589 l217 -23 0 -357 0 -356 -187 -67 c-104 -36 -193 -66 -199
-66 -6 0 -20 19 -30 42 -79 176 -250 343 -439 429 -68 31 -195 64 -277 72
l-48 5 0 -122 c-1 -119 -1 -122 -30 -160 l-30 -40 0 123 c0 88 -3 123 -12 126
-23 8 -529 85 -558 85 -20 0 -31 -6 -35 -20 -3 -11 -13 -20 -21 -20 -11 0 -14
15 -14 66 0 64 1 65 33 79 17 7 262 60 542 118 281 58 519 108 530 111 41 11
347 -3 558 -25z m-1133 -438 c0 -4 -67 -29 -149 -56 -121 -39 -151 -53 -155
-69 -13 -57 -27 -320 -29 -563 -1 -149 -5 -274 -9 -278 -6 -7 -117 11 -127 20
-3 3 1 15 8 27 7 11 8 17 2 13 -8 -4 -11 48 -11 175 0 178 0 181 -22 189 -34
13 -449 94 -454 88 -2 -2 33 -12 78 -22 46 -9 87 -20 92 -23 5 -3 -3 -15 -18
-27 -26 -21 -31 -21 -97 -10 l-69 12 0 -148 c0 -81 -3 -150 -8 -153 -4 -2 -23
-1 -42 3 -28 5 -36 12 -38 34 -2 15 -8 27 -14 27 -7 0 -9 22 -4 68 4 37 7 144
7 237 -1 215 29 418 64 432 12 4 210 -20 611 -73 l42 -6 -10 49 c-5 26 -6 62
-3 79 l5 30 175 -24 c96 -14 175 -28 175 -31z m-1056 -169 c-7 -32 -24 -35
-24 -3 0 16 20 44 27 37 2 -1 0 -17 -3 -34z m1096 -63 l0 -80 -36 -15 c-20 -8
-38 -13 -41 -11 -2 3 12 10 31 17 l36 12 0 79 c0 43 2 79 5 79 3 0 5 -36 5
-81z m-236 -21 c7 -35 -15 -78 -39 -78 -11 0 -15 13 -15 55 0 51 2 55 24 55
18 0 25 -7 30 -32z m-290 -298 c9 0 -2 -179 -13 -195 -3 -5 -8 12 -11 40 -4
42 -9 50 -30 56 l-25 7 28 1 c15 1 27 7 27 14 0 9 -29 20 -85 32 -47 10 -85
20 -85 23 0 3 9 16 21 28 20 21 22 21 92 8 40 -8 76 -14 81 -14z m1696 -25
c-37 -39 -56 -31 -23 10 18 22 31 31 37 25 6 -6 1 -19 -14 -35z m-1937 -32
c-7 -2 -19 -2 -25 0 -7 3 -2 5 12 5 14 0 19 -2 13 -5z m50 -10 c-7 -2 -19 -2
-25 0 -7 3 -2 5 12 5 14 0 19 -2 13 -5z m87 -13 c20 -6 21 -8 5 -8 -11 0 -33
4 -50 8 -27 7 -27 8 -5 8 14 0 36 -4 50 -8z m1580 -12 c0 -17 -41 -58 -57 -58
-9 0 -5 12 13 35 27 36 44 45 44 23z m-952 -67 c28 -17 8 -44 -45 -62 -29 -10
-66 -26 -83 -35 -29 -18 -30 -18 -55 6 l-25 24 22 24 c13 14 37 31 53 38 34
15 113 18 133 5z m-528 -201 c0 -22 -4 -40 -10 -40 -11 0 -14 63 -3 73 11 12
13 8 13 -33z m-128 -66 c-2 -16 -5 -30 -6 -32 -2 -1 -60 12 -129 29 l-127 32
0 32 0 32 133 -32 132 -33 -3 -28z m668 -31 c0 -26 -51 -73 -79 -73 l-25 0 22
16 c12 8 29 28 37 45 17 32 45 39 45 12z"/>
<path d="M156 1368 c-4 -13 -25 -222 -22 -225 0 0 145 -28 321 -60 l320 -60 6
56 c4 31 7 91 8 133 1 76 1 76 -26 82 -16 3 -145 22 -288 41 -143 20 -272 38
-288 41 -18 4 -28 1 -31 -8z"/>
</g>
</svg>
