<svg id="_x31_" enable-background="new 0 0 24 24" height="512" viewBox="0 0 24 24" width="512" xmlns="http://www.w3.org/2000/svg"><g><g><g><path d="m14.5 21h-8c-.276 0-.5-.224-.5-.5s.224-.5.5-.5h7.5v-13h-13v13h1.5c.276 0 .5.224.5.5s-.224.5-.5.5h-2c-.276 0-.5-.224-.5-.5v-14c0-.276.224-.5.5-.5h14c.276 0 .5.224.5.5v14c0 .276-.224.5-.5.5z"/></g></g></g><g><g><g><path d="m14.5 15c-.276 0-.5-.224-.5-.5v-5c0-.276.224-.5.5-.5h3.438c1.149 0 2.146.778 2.426 1.894l.621 2.485c.066.268-.097.539-.364.606-.271.064-.54-.097-.606-.364l-.621-2.485c-.167-.669-.766-1.136-1.456-1.136h-2.938v4.5c0 .276-.224.5-.5.5z"/></g></g></g><g><g><g><path d="m23.5 21h-2.5c-.276 0-.5-.224-.5-.5s.224-.5.5-.5h2v-4.232l-2.651-1.768h-5.349v6h2c.276 0 .5.224.5.5s-.224.5-.5.5h-2.5c-.276 0-.5-.224-.5-.5v-7c0-.276.224-.5.5-.5h6c.099 0 .195.029.277.084l3 2c.139.093.223.249.223.416v5c0 .276-.224.5-.5.5z"/></g></g></g><g><g><g><path d="m19 23c-1.379 0-2.5-1.121-2.5-2.5s1.121-2.5 2.5-2.5 2.5 1.121 2.5 2.5-1.121 2.5-2.5 2.5zm0-4c-.827 0-1.5.673-1.5 1.5s.673 1.5 1.5 1.5 1.5-.673 1.5-1.5-.673-1.5-1.5-1.5z"/></g></g></g><g><g><g><path d="m4.5 23c-1.379 0-2.5-1.121-2.5-2.5s1.121-2.5 2.5-2.5 2.5 1.121 2.5 2.5-1.121 2.5-2.5 2.5zm0-4c-.827 0-1.5.673-1.5 1.5s.673 1.5 1.5 1.5 1.5-.673 1.5-1.5-.673-1.5-1.5-1.5z"/></g></g></g></svg>