<?xml version="1.0" encoding="UTF-8" standalone="no"?>
<svg xml:space="preserve" 
     style="enable-background:new 0 0 512 512;" viewBox="0 0 512 512"
     y="0px" x="0px" width= "32px" height="32px">

<g id="g105"><g id="g103"><path id="path101" d="M386.689,304.403c-35.587,0-64.538,28.951-64.538,64.538s28.951,64.538,64.538,64.538    c35.593,0,64.538-28.951,64.538-64.538S422.276,304.403,386.689,304.403z M386.689,401.21c-17.796,0-32.269-14.473-32.269-32.269    c0-17.796,14.473-32.269,32.269-32.269c17.796,0,32.269,14.473,32.269,32.269C418.958,386.738,404.485,401.21,386.689,401.21z" />
</g></g><g id="g111"><g id="g109"><path id="path107" d="M166.185,304.403c-35.587,0-64.538,28.951-64.538,64.538s28.951,64.538,64.538,64.538s64.538-28.951,64.538-64.538    S201.772,304.403,166.185,304.403z M166.185,401.21c-17.796,0-32.269-14.473-32.269-32.269c0-17.796,14.473-32.269,32.269-32.269    c17.791,0,32.269,14.473,32.269,32.269C198.454,386.738,183.981,401.21,166.185,401.21z" />
</g></g><g id="g117"><g id="g115"><path id="path113" d="M430.15,119.675c-2.743-5.448-8.32-8.885-14.419-8.885h-84.975v32.269h75.025l43.934,87.384l28.838-14.5L430.15,119.675z" />
</g></g><g id="g123"><g id="g121"><rect id="rect119" height="32.269" width="122.084" y="353.345" x="216.202" />
</g></g><g id="g129"><g id="g127"><path id="path125" d="M117.781,353.345H61.849c-8.912,0-16.134,7.223-16.134,16.134c0,8.912,7.223,16.134,16.134,16.134h55.933    c8.912,0,16.134-7.223,16.134-16.134C133.916,360.567,126.693,353.345,117.781,353.345z" />
</g></g><g id="g135"><g id="g133"><path id="path131" d="M508.612,254.709l-31.736-40.874c-3.049-3.937-7.755-6.239-12.741-6.239H346.891V94.655    c0-8.912-7.223-16.134-16.134-16.134H61.849c-8.912,0-16.134,7.223-16.134,16.134s7.223,16.134,16.134,16.134h252.773v112.941    c0,8.912,7.223,16.134,16.134,16.134h125.478l23.497,30.268v83.211h-44.639c-8.912,0-16.134,7.223-16.134,16.134    c0,8.912,7.223,16.134,16.134,16.134h60.773c8.912,0,16.134-7.223,16.135-16.134V264.605    C512,261.023,510.806,257.538,508.612,254.709z" />
</g></g><g id="g155"></g><g id="g157"></g><g id="g159"></g><g id="g161"></g><g id="g163"></g><g id="g165"></g><g id="g167"></g><g id="g169"></g>
<g id="g171"></g><g id="g173"></g><g id="g175"></g><g id="g177"></g><g id="g179"></g><g id="g181"></g><g id="g183"></g>

<path id="path192"
   d="m 5.820771,157.38708 c -4.5218855,-2.80452 -7.0406418,-8.02727 -7.0484904,-14.61536 -0.00804,-6.74617 3.044873,-12.61674 7.6728537,-14.75451 1.7848312,-0.82446 8.6560217,-0.94082 54.8563707,-0.92897 52.130265,0.0134 52.842535,0.0298 54.863565,1.26864 2.51531,1.54174 4.77073,4.39568 6.05549,7.66239 1.35715,3.45078 1.3555,10.11499 -0.003,13.60372 -1.20314,3.0889 -3.383,6.03383 -5.54814,7.4954 -1.54803,1.04486 -4.70657,1.11637 -55.335037,1.25282 -51.191493,0.13798 -53.7781275,0.0921 -55.5134333,-0.98413 z"
   style="fill:#00ff00;stroke-width:0.529803" />
<path style="fill:#ff0000;stroke-width:0.529803"
   d="m 7.1195355,205.24185 c -4.521885,-2.80452 -7.04064096,-8.02727 -7.04848996,-14.61536 -0.008,-6.74617 3.04487296,-12.61674 7.67285396,-14.75451 1.784831,-0.82446 8.6560215,-0.94082 54.8563705,-0.92897 52.13027,0.0134 52.84254,0.0298 54.86357,1.26864 2.51531,1.54174 4.77073,4.39568 6.05549,7.66239 1.35715,3.45078 1.3555,10.11499 -0.003,13.60372 -1.20314,3.0889 -3.383,6.03383 -5.54814,7.4954 -1.54803,1.04486 -4.70657,1.11637 -55.335042,1.25282 -51.191493,0.13798 -53.7781275,0.0921 -55.5134335,-0.98413 z"
   id="path192-1" />
<path id="path209"
   d="m 7.736403,254.59124 c -4.521885,-2.80452 -7.04064099,-8.02727 -7.04848999,-14.61536 -0.008,-6.74617 3.04487299,-12.61674 7.67285399,-14.75451 1.784831,-0.82446 8.656021,-0.94082 54.85637,-0.92897 52.130273,0.0134 52.842543,0.0298 54.863573,1.26864 2.51531,1.54174 4.77073,4.39568 6.05549,7.66239 1.35715,3.45078 1.3555,10.11499 -0.003,13.60372 -1.20314,3.0889 -3.383,6.03383 -5.54814,7.4954 -1.54803,1.04486 -4.70657,1.11637 -55.335045,1.25282 -51.191493,0.13798 -53.778127,0.0921 -55.513433,-0.98413 z"
   style="fill:#ffff00;stroke-width:0.529803" />
<path style="fill:#ff00ff;stroke-width:0.529803"
   d="m 8.3532705,302.09004 c -4.521885,-2.80452 -7.040641,-8.02727 -7.04849,-14.61536 -0.008,-6.74617 3.044873,-12.61674 7.672854,-14.75451 1.7848305,-0.82446 8.6560205,-0.94082 54.8563695,-0.92897 52.130276,0.0134 52.842546,0.0298 54.863576,1.26864 2.51531,1.54174 4.77073,4.39568 6.05549,7.66239 1.35715,3.45078 1.3555,10.11499 -0.003,13.60372 -1.20314,3.0889 -3.383,6.03383 -5.54814,7.4954 -1.54803,1.04486 -4.70657,1.11637 -55.335048,1.25282 -51.191493,0.13798 -53.778127,0.0921 -55.5134325,-0.98413 z"
   id="path211" /></svg>
