<?xml version="1.0" encoding="iso-8859-1"?>
<!-- Generator: Adobe Illustrator 16.0.0, SVG Export Plug-In . SVG Version: 6.00 Build 0)  -->
<!DOCTYPE svg PUBLIC "-//W3C//DTD SVG 1.1//EN" "http://www.w3.org/Graphics/SVG/1.1/DTD/svg11.dtd">
<svg version="1.1" id="Capa_1" xmlns="http://www.w3.org/2000/svg" xmlns:xlink="http://www.w3.org/1999/xlink" x="0px" y="0px"
	 width="322.64px" height="322.64px" viewBox="0 0 322.64 322.64" style="enable-background:new 0 0 322.64 322.64;"
	 xml:space="preserve">
<g>
	<path d="M227.812,0c-25.323,0-49.138,9.864-67.046,27.77c-17.906,17.909-27.772,41.721-27.772,67.047
		c0,5.289,0.53,10.489,1.371,15.606c2.529-1.078,5.136-1.943,7.794-2.655c2.597-0.696,5.241-1.221,7.941-1.566
		c-0.541-3.744-0.907-7.528-0.907-11.385c0-20.999,8.182-40.743,23.026-55.593C187.07,24.374,206.813,16.2,227.812,16.2
		s40.737,8.174,55.588,23.023c14.85,14.85,23.028,34.594,23.028,55.593c0,21.001-8.179,40.74-23.028,55.59
		c-14.851,14.853-34.589,23.026-55.588,23.026c-3.85,0-7.641-0.369-11.38-0.907c-0.343,2.689-0.865,5.348-1.571,7.942
		c-0.707,2.663-1.582,5.263-2.658,7.794c5.126,0.844,10.315,1.371,15.609,1.371c25.323,0,49.138-9.867,67.047-27.775
		c17.908-17.906,27.77-41.718,27.77-67.046c0-25.326-9.861-49.138-27.77-67.046C276.95,9.858,253.136,0,227.812,0z"/>
	<path d="M68.033,322.64C68.038,322.64,68.038,322.64,68.033,322.64c18.175,0,35.266-7.077,48.118-19.929
		c5.492-5.489,9.99-11.912,13.371-19.095c12.227-19.101,21.099-40.964,25.964-54.401l54.461,54.454
		c4.166,4.171,9.703,6.465,15.604,6.465c5.896,0,11.438-2.294,15.604-6.465l4.324-4.313c4.166-4.172,6.46-9.714,6.46-15.609
		c0-5.896-2.294-11.438-6.46-15.609l-43.675-43.664l-5.727-5.732l-1.545-1.545c2.336-3.702,4.15-7.637,5.416-11.724
		c0.822-2.62,1.392-5.3,1.767-8.01c0.385-2.784,0.554-5.579,0.475-8.385c-0.153-5.526-1.208-11.024-3.175-16.264
		c-2.437-6.486-6.207-12.577-11.423-17.782c-5.215-5.215-11.312-8.996-17.808-11.427c-5.237-1.959-10.724-3.016-16.248-3.169
		c-2.803-0.074-5.6,0.087-8.382,0.475c-2.705,0.38-5.384,0.952-8.013,1.767c-4.076,1.271-8.013,3.085-11.717,5.416l-1.545-1.542
		l-5.729-5.73L74.479,77.15c-4.168-4.166-9.708-6.46-15.606-6.46c-5.896,0-11.436,2.294-15.604,6.465l-4.327,4.319
		c-8.596,8.601-8.596,22.604,0,31.206l54.464,54.466c-13.435,4.862-35.301,13.737-54.398,25.961
		c-7.183,3.386-13.608,7.879-19.095,13.369c-26.536,26.535-26.536,69.704,0,96.234C32.77,315.562,49.855,322.64,68.033,322.64z
		 M176.144,146.491c4.039,4.04,6.824,8.854,8.396,13.969c1.033,3.349,1.54,6.824,1.508,10.305c-0.021,2.879-0.422,5.759-1.176,8.559
		c-0.554,2.052-1.292,4.05-2.236,5.985l-45.309-45.314c1.933-0.939,3.937-1.685,5.983-2.236c2.803-0.749,5.674-1.155,8.559-1.176
		c3.478-0.026,6.95,0.475,10.296,1.506C167.284,139.659,172.104,142.451,176.144,146.491z M50.406,101.229
		c-2.289-2.291-2.289-6.012,0-8.3l4.319-4.322c1.107-1.11,2.581-1.716,4.152-1.716c1.572,0,3.04,0.611,4.153,1.716l44.584,44.584
		l5.901,5.9l5.919,5.92l58.185,58.189l5.917,5.917l5.906,5.911l44.581,44.571c1.107,1.118,1.714,2.59,1.714,4.155
		c0,1.566-0.606,3.038-1.714,4.156l-4.324,4.318c-2.215,2.21-6.074,2.21-8.3,0l-49.665-49.67l-6.919-6.919l-7.56-7.562l-6.55-6.55
		l-36.139-36.133l-3.897-3.9l0,0l-3.678-3.678l-6.885-6.885L50.406,101.229z M31.377,217.93c4.298-4.292,9.368-7.799,15.077-10.415
		l10.573-4.867l-0.918-0.917c16.485-9.334,34.03-16.2,44.664-19.997c2.036-0.718,3.91-1.371,5.374-1.867l3.855,3.86l28.906,28.903
		l3.855,3.855c-0.49,1.466-1.145,3.349-1.875,5.395c-3.783,10.626-10.642,28.145-19.983,44.64l-0.936-0.934l-4.849,10.595
		c-2.613,5.706-6.117,10.773-10.415,15.071c-9.795,9.793-22.815,15.188-36.661,15.188c0,0,0,0-0.005,0
		c-13.846,0-26.871-5.395-36.661-15.188c-9.79-9.787-15.185-22.812-15.185-36.661C16.192,240.748,21.582,227.729,31.377,217.93z"/>
</g>
<g>
</g>
<g>
</g>
<g>
</g>
<g>
</g>
<g>
</g>
<g>
</g>
<g>
</g>
<g>
</g>
<g>
</g>
<g>
</g>
<g>
</g>
<g>
</g>
<g>
</g>
<g>
</g>
<g>
</g>
</svg>
