<?xml version="1.0"?>
<svg xmlns="http://www.w3.org/2000/svg" viewBox="0 0 512 512" width="512px" height="512px"><g id="Outline"><path d="M56,160H72l-9.6,12.8A32,32,0,0,0,88,224c.679,0,1.352-.029,2.021-.07-9.206,19.378-19.864,44.383-26.712,60.785A94.786,94.786,0,0,0,150.788,416h31.768l-5.333,32H168a24.027,24.027,0,0,0-24,24v16a8,8,0,0,0,8,8H312a8,8,0,0,0,8-8V472a24.027,24.027,0,0,0-24-24h-6.556l5.516-33.1a94.774,94.774,0,0,0,56.993-31.272L379.63,352H392a72.081,72.081,0,0,0,72-72,8,8,0,0,0-8-8H437.207A71.9,71.9,0,0,0,464,216a8,8,0,0,0-8-8H437.207A71.9,71.9,0,0,0,464,152a8,8,0,0,0-8-8H437.207A71.9,71.9,0,0,0,464,88a8,8,0,0,0-8-8H389.957a94.786,94.786,0,0,0-85.243,52.683l-47.985,95.97-49.435-120.84L223.823,90.7c.026-.025.05-.051.074-.077a29.069,29.069,0,0,0,.868-39.463A28.3,28.3,0,0,0,199.8,41.318a12.9,12.9,0,0,1-13.253-7.87,28.926,28.926,0,0,0-53.1,0,12.893,12.893,0,0,1-13.253,7.87,28.311,28.311,0,0,0-24.961,9.841A29.069,29.069,0,0,0,96.1,90.622c.024.026.048.052.074.078l9.843,10.191a50.735,50.735,0,0,0-1.487,6.861l-7.986.368c-.129.006-.259.015-.388.027l-9.059.861A43.011,43.011,0,0,0,48,152,8,8,0,0,0,56,160Zm16,32a16.1,16.1,0,0,1,3.2-9.6L92,160h12v32a16,16,0,0,1-32,0Zm0,129.212a78.311,78.311,0,0,1,6.072-30.331c16.91-40.5,30.466-69.992,37.191-80.92A31.911,31.911,0,0,0,120,193.224V115.079A35.079,35.079,0,0,1,187.546,101.8L244.084,240H200a87.973,87.973,0,0,0-50.588,159.965A78.865,78.865,0,0,1,72,321.212ZM264,312h64a40.045,40.045,0,0,1-40,40H264a8,8,0,0,0,0,16h47.2A40.071,40.071,0,0,1,272,400H200a72,72,0,0,1,0-144H343.333A48.078,48.078,0,0,1,296,296H264a8,8,0,0,0,0,16ZM232,448c-.674,0-1.34.035-2,.09V448h-4.556l5.333-32h15.779l-5.333,32Zm-33.223-32h15.78l-5.334,32h-15.78ZM160,472a8.009,8.009,0,0,1,8-8h41.376A23.885,23.885,0,0,0,208,472v8H160Zm144,0v8H224v-8a8.009,8.009,0,0,1,8-8h64A8.009,8.009,0,0,1,304,472Zm-46.557-24,5.334-32h15.78l-5.334,32Zm61.581-308.162A78.875,78.875,0,0,1,389.957,96h57.474A56.089,56.089,0,0,1,392,144a8,8,0,0,0,0,16h55.431A56.089,56.089,0,0,1,392,208a8,8,0,0,0,0,16h55.431A56.089,56.089,0,0,1,392,272a8,8,0,0,0,0,16h55.431A56.089,56.089,0,0,1,392,336H376a8,8,0,0,0-6.021,2.732l-30.067,34.362A78.734,78.734,0,0,1,319.378,389.8,55.642,55.642,0,0,0,328,360a7.982,7.982,0,0,0-2.854-6.126A55.882,55.882,0,0,0,344,312v-8a8,8,0,0,0-6-7.748A63.872,63.872,0,0,0,360,248a8,8,0,0,0-8-8H268.944Zm-211.3-60.213a13.5,13.5,0,0,1-3.274-5.568,13.9,13.9,0,0,1,2.93-12.484,12.426,12.426,0,0,1,11.051-4.352,28.813,28.813,0,0,0,29.7-17.425,12.927,12.927,0,0,1,23.73,0,28.816,28.816,0,0,0,29.7,17.424,12.417,12.417,0,0,1,11.051,4.352,13.9,13.9,0,0,1,2.93,12.485,13.512,13.512,0,0,1-3.273,5.567L200.532,91.784a51.04,51.04,0,0,0-87.089-6.239ZM88.613,124.937l8.866-.843,6.521-.3V144H65.183A27.062,27.062,0,0,1,88.613,124.937Z" fill="#FFFFFF"/><circle cx="160" cy="120" r="16" fill="#FFFFFF"/></g></svg>
